<svg id="diaper" xmlns="http://www.w3.org/2000/svg" viewBox="0 0 119 89.85"><defs><style>.cls-1{fill:#dee2e6;}.cls-2{fill:#3d596d;}</style></defs><title>diaper</title><path class="cls-1" d="M270.09,318.29H236.91a3.5,3.5,0,0,1-3.5-3.5,36,36,0,0,0-35.91-35.91,3.5,3.5,0,0,1-3.5-3.5V231.94a3.5,3.5,0,0,1,3.5-3.5h112a3.5,3.5,0,0,1,3.5,3.5v43.44a3.5,3.5,0,0,1-3.5,3.5,36,36,0,0,0-35.91,35.91A3.5,3.5,0,0,1,270.09,318.29Z" transform="translate(-194 -228.44)"/><path class="cls-1" d="M309.5,228.44h-56v89.85h16.59a3.5,3.5,0,0,0,3.5-3.5,36,36,0,0,1,35.91-35.91,3.5,3.5,0,0,0,3.5-3.5V231.94A3.5,3.5,0,0,0,309.5,228.44Z" transform="translate(-194 -228.44)"/><path class="cls-2" d="M220.08,255.08H209.61a3.5,3.5,0,0,1,0-7h10.47a3.5,3.5,0,0,1,0,7Z" transform="translate(-194 -228.44)"/><path class="cls-2" d="M245.85,255.08H235.38a3.5,3.5,0,1,1,0-7h10.47a3.5,3.5,0,1,1,0,7Z" transform="translate(-194 -228.44)"/><path class="cls-2" d="M271.62,255.08H261.15a3.5,3.5,0,0,1,0-7h10.47a3.5,3.5,0,0,1,0,7Z" transform="translate(-194 -228.44)"/><path class="cls-2" d="M297.39,255.08H286.92a3.5,3.5,0,0,1,0-7h10.47a3.5,3.5,0,0,1,0,7Z" transform="translate(-194 -228.44)"/></svg>