<svg id="diaper" xmlns="http://www.w3.org/2000/svg" viewBox="0 0 119 89.85"><defs><style>.cls-1{fill:#495057;}.cls-2{fill:#dee2e6;}</style></defs><title>diaper--dark</title><path class="cls-1" d="M76.09,89.85H42.91a3.5,3.5,0,0,1-3.5-3.5A36,36,0,0,0,3.5,50.44,3.5,3.5,0,0,1,0,46.94V3.5A3.5,3.5,0,0,1,3.5,0h112A3.5,3.5,0,0,1,119,3.5V46.94a3.5,3.5,0,0,1-3.5,3.5A36,36,0,0,0,79.59,86.35,3.5,3.5,0,0,1,76.09,89.85Z"/><path class="cls-1" d="M115.5,0h-56V89.85H76.09a3.5,3.5,0,0,0,3.5-3.5A36,36,0,0,1,115.5,50.44a3.5,3.5,0,0,0,3.5-3.5V3.5A3.5,3.5,0,0,0,115.5,0Z"/><path class="cls-2" d="M26.08,26.64H15.61a3.5,3.5,0,0,1,0-7H26.08a3.5,3.5,0,0,1,0,7Z"/><path class="cls-2" d="M51.85,26.64H41.38a3.5,3.5,0,0,1,0-7H51.85a3.5,3.5,0,0,1,0,7Z"/><path class="cls-2" d="M77.62,26.64H67.15a3.5,3.5,0,0,1,0-7H77.62a3.5,3.5,0,0,1,0,7Z"/><path class="cls-2" d="M103.39,26.64H92.92a3.5,3.5,0,0,1,0-7h10.47a3.5,3.5,0,0,1,0,7Z"/></svg>