<svg id="Layer_1" data-name="Layer 1" xmlns="http://www.w3.org/2000/svg" viewBox="0 0 198 181.69"><defs><style>.cls-1{fill:#e2a52d;}.cls-2{fill:#d18819;}.cls-3{fill:#eae9e8;}.cls-4{fill:#dbdbdb;}.cls-5{fill:#656566;}</style></defs><title>Artboard 1</title><path class="cls-1" d="M177.86,141.42h-.62c9-11.57.71-28.55-14.26-28.55h-1c-.42,0,7.49-4.44,7.35-14.62a17.88,17.88,0,0,0-18-17.43h-1.1l-2.79-4.68c9-11.75.24-28.41-14.38-28.41H122.27C130.47,19.5,104.36,5.38,91.54.27A3.32,3.32,0,0,0,87,3.94c1,5.46-3.7,14.17-13.53,24a12.6,12.6,0,0,0-2,15.25l2.61,4.53H64.89c-14.62,0-23.37,16.66-14.38,28.41l-2.79,4.65h-1.1a17.88,17.88,0,0,0-18,17.43A17.65,17.65,0,0,0,36,112.84c.08.06-.22,0-1,0-15,0-23.31,17-14.26,28.55h-.62A20.19,20.19,0,0,0,0,161.55H0a20.19,20.19,0,0,0,20.14,20.14H177.86A20.19,20.19,0,0,0,198,161.55h0A20.2,20.2,0,0,0,177.86,141.42Z"/><path class="cls-2" d="M107.39,8.78A74.4,74.4,0,0,0,91.52.24,3.32,3.32,0,0,0,87,3.94c1,5.46-3.7,14.17-13.53,24a12.6,12.6,0,0,0-2,15.25l2.61,4.53H64.89c-14.62,0-23.37,16.66-14.38,28.41l-2.79,4.65h-1.1a17.88,17.88,0,0,0-18,17.43A17.65,17.65,0,0,0,36,112.84c.08.06-.22,0-1,0-15,0-23.31,17-14.26,28.55h-.62A20.19,20.19,0,0,0,0,161.55H0a20.19,20.19,0,0,0,20.14,20.14H40.86a20.19,20.19,0,0,1-20.14-20.14h0a20.21,20.21,0,0,1,15.64-19.62A3.92,3.92,0,0,0,39,139.84h0a3.06,3.06,0,0,0,0-2.54,17.79,17.79,0,0,1,11.66-23.75,3.29,3.29,0,0,0,2.09-1.7v-.07a3,3,0,0,0-.25-3.1,17.58,17.58,0,0,1-3.24-10.15,18,18,0,0,1,18-17.75h1.1l2.79-4.68c-9-11.74-.24-28.41,14.38-28.41h5.25a2.29,2.29,0,0,0,2-3.44l-.63-1.1a12.6,12.6,0,0,1,2-15.25C101.52,20.66,106,14,107.39,8.78Z"/><circle class="cls-3" cx="67.6" cy="89.47" r="21.69"/><path class="cls-4" d="M57.48,95.32a21.69,21.69,0,0,1,3.9-26.62,21.69,21.69,0,1,0,21.1,36.55A21.69,21.69,0,0,1,57.48,95.32Z"/><path class="cls-3" d="M55.62,131.35c18,34.54,67,35.45,86.45,2.32a5.84,5.84,0,0,0-5-8.8H59.56a4.44,4.44,0,0,0-3.94,6.48Z"/><path class="cls-4" d="M75.46,131.35c-1.19-3,.47-6.48,3-6.48H59.56a4.44,4.44,0,0,0-3.94,6.48C65.79,150.93,86,159.7,105.06,157.59,93.15,155.89,81.8,147.14,75.46,131.35Z"/><circle class="cls-3" cx="130.4" cy="89.47" r="21.69"/><path class="cls-4" d="M120.27,95.32a21.69,21.69,0,0,1,3.9-26.62,21.69,21.69,0,1,0,21.1,36.55A21.69,21.69,0,0,1,120.27,95.32Z"/><circle class="cls-5" cx="124.41" cy="89.47" r="4.68"/><circle class="cls-5" cx="73.59" cy="89.47" r="4.68"/></svg>