<svg xmlns="http://www.w3.org/2000/svg" viewBox="0 0 249.82 395.41"><defs><style>.cls-1{fill:#fdd663;}.cls-2{fill:#f8a33b;}.cls-3{fill:#eae9e8;}.cls-4{fill:#dbdbdb;}.cls-5{fill:#656566;}</style></defs><title>pee-drop</title><g id="Layer_1" data-name="Layer 1"><path class="cls-1" d="M381.43,267.76a2.76,2.76,0,0,0-.14-.3l-114.13-220a2.75,2.75,0,0,0-4.89,0l-114.13,220a2.49,2.49,0,0,0-.13.3A128.68,128.68,0,0,0,264.64,441.41h.17A128.68,128.68,0,0,0,381.43,267.76Z" transform="translate(-139.82 -46)"/><path class="cls-2" d="M273.53,419.34A142.86,142.86,0,0,1,230.67,318a2.88,2.88,0,0,1,0-.37L261.36,49.27,148.16,267.46a2.49,2.49,0,0,0-.13.3A128.68,128.68,0,0,0,264.64,441.41h.17A128.38,128.38,0,0,0,295,436.84,145.4,145.4,0,0,1,273.53,419.34Z" transform="translate(-139.82 -46)"/></g><g id="Layer_2" data-name="Layer 2"><path class="cls-3" d="M202.81,344.25c24.93,48,93,49.22,120.05,3.22a8.11,8.11,0,0,0-7-12.22H208.29A6.16,6.16,0,0,0,202.81,344.25Z" transform="translate(-139.82 -46)"/><path class="cls-4" d="M230.37,344.25c-1.65-4.1.66-9,4.23-9H208.29a6.16,6.16,0,0,0-5.47,9c14.13,27.19,42.12,39.36,68.65,36.44C254.94,378.33,239.17,366.18,230.37,344.25Z" transform="translate(-139.82 -46)"/></g><g id="Layer_3" data-name="Layer 3"><circle class="cls-3" cx="69.66" cy="225.24" r="35.56"/><path class="cls-4" d="M192.87,280.82a35.57,35.57,0,0,1,6.4-43.65,35.56,35.56,0,1,0,34.6,59.93A35.56,35.56,0,0,1,192.87,280.82Z" transform="translate(-139.82 -46)"/><circle class="cls-3" cx="172.62" cy="225.24" r="35.56"/><path class="cls-4" d="M295.84,280.82a35.57,35.57,0,0,1,6.4-43.65,35.56,35.56,0,1,0,34.6,59.93A35.56,35.56,0,0,1,295.84,280.82Z" transform="translate(-139.82 -46)"/><circle class="cls-5" cx="162.8" cy="225.24" r="7.67"/><circle class="cls-5" cx="79.48" cy="225.24" r="7.67"/></g></svg>