<svg id="Layer_1" data-name="Layer 1" xmlns="http://www.w3.org/2000/svg" viewBox="0 0 198 181.69"><defs><style>.cls-1{fill:#7c6359;}.cls-2{fill:#705850;}.cls-3{fill:#eae9e8;}.cls-4{fill:#dbdbdb;}.cls-5{fill:#656566;}</style></defs><title>ppp-logo</title><path class="cls-1" d="M178.86,149.64h-.62c9-11.57.71-28.55-14.26-28.55h-1c-.42,0,7.49-4.44,7.35-14.62a17.88,17.88,0,0,0-18-17.43h-1.1l-2.79-4.68c9-11.75.24-28.41-14.38-28.41H123.27l0,0c8.2-28.23-17.91-42.35-30.73-47.46A3.32,3.32,0,0,0,88,12.16c1,5.46-3.7,14.17-13.53,24a12.6,12.6,0,0,0-2,15.25l2.61,4.53H65.89c-14.62,0-23.37,16.66-14.38,28.41L48.72,89h-1.1a17.88,17.88,0,0,0-18,17.43A17.65,17.65,0,0,0,37,121.06c.08.06-.22,0-1,0-15,0-23.31,17-14.26,28.55h-.62A20.19,20.19,0,0,0,1,169.77H1a20.19,20.19,0,0,0,20.14,20.14H178.86A20.19,20.19,0,0,0,199,169.77h0A20.2,20.2,0,0,0,178.86,149.64Z" transform="translate(-1 -8.22)"/><path class="cls-2" d="M108.39,17A74.4,74.4,0,0,0,92.52,8.46,3.32,3.32,0,0,0,88,12.16c1,5.46-3.7,14.17-13.53,24a12.6,12.6,0,0,0-2,15.25l2.61,4.53H65.89c-14.62,0-23.37,16.66-14.38,28.41L48.72,89h-1.1a17.88,17.88,0,0,0-18,17.43A17.65,17.65,0,0,0,37,121.06c.08.06-.22,0-1,0-15,0-23.31,17-14.26,28.55h-.62A20.19,20.19,0,0,0,1,169.77H1a20.19,20.19,0,0,0,20.14,20.14H41.86a20.19,20.19,0,0,1-20.14-20.14h0a20.21,20.21,0,0,1,15.64-19.62A3.92,3.92,0,0,0,40,148.06h0a3.06,3.06,0,0,0,.05-2.54,17.79,17.79,0,0,1,11.66-23.75,3.29,3.29,0,0,0,2.09-1.7l0-.07a3,3,0,0,0-.25-3.1,17.58,17.58,0,0,1-3.24-10.15A18,18,0,0,1,68.34,89h1.1l2.79-4.68c-9-11.74-.24-28.41,14.38-28.41h5.25a2.29,2.29,0,0,0,2-3.44l-.63-1.1a12.6,12.6,0,0,1,2-15.25C102.52,28.88,107,22.23,108.39,17Z" transform="translate(-1 -8.22)"/><circle class="cls-3" cx="67.6" cy="89.47" r="21.69"/><path class="cls-4" d="M58.48,103.54a21.69,21.69,0,0,1,3.9-26.62,21.69,21.69,0,1,0,21.1,36.55A21.69,21.69,0,0,1,58.48,103.54Z" transform="translate(-1 -8.22)"/><path class="cls-3" d="M56.62,139.57c18,34.54,67,35.45,86.45,2.32a5.84,5.84,0,0,0-5-8.8H60.56A4.44,4.44,0,0,0,56.62,139.57Z" transform="translate(-1 -8.22)"/><path class="cls-4" d="M76.46,139.57c-1.19-3,.47-6.48,3-6.48H60.56a4.44,4.44,0,0,0-3.94,6.48c10.17,19.58,30.33,28.35,49.44,26.24C94.15,164.11,82.8,155.36,76.46,139.57Z" transform="translate(-1 -8.22)"/><circle class="cls-3" cx="130.4" cy="89.47" r="21.69"/><path class="cls-4" d="M121.27,103.54a21.69,21.69,0,0,1,3.9-26.62,21.69,21.69,0,1,0,21.1,36.55A21.69,21.69,0,0,1,121.27,103.54Z" transform="translate(-1 -8.22)"/><circle class="cls-5" cx="124.41" cy="89.47" r="4.68"/><circle class="cls-5" cx="73.59" cy="89.47" r="4.68"/></svg>