<svg xmlns="http://www.w3.org/2000/svg" viewBox="0 0 500 500"><defs><style>.cls-1{opacity:0.75;}.cls-11,.cls-2{fill:none;stroke:#7c5a43;stroke-miterlimit:10;}.cls-2{stroke-width:4.54px;}.cls-3{fill:#7c6359;}.cls-4{fill:#705850;}.cls-5{fill:#eae9e8;}.cls-6{fill:#dbdbdb;}.cls-7{fill:#656566;}.cls-8{fill:#edf6ff;}.cls-9{fill:#d6e9ff;}.cls-10{fill:#b5d9ff;}.cls-11{stroke-width:5px;}.cls-12{fill:#3db39e;}.cls-13{fill:#37a18e;}.cls-14{fill:#ebedee;}.cls-15{fill:#c6584e;}.cls-16{fill:#3e4e5c;}.cls-17{fill:#384653;}.cls-18{fill:#d3d5d6;}.cls-19{fill:#ee5253;}.cls-20{fill:#d83941;}.cls-21{fill:#ff6b6b;}</style></defs><title>Artboard 1</title><g id="arms_hands" data-name="arms/hands"><path class="cls-1" d="M412.68,137a25.44,25.44,0,0,0,4.53-9.73l3.22-14.13a3.76,3.76,0,0,0-4.52-4.48l.56-2.45a4.3,4.3,0,0,0-5.55-5,4.3,4.3,0,0,0-8.33-1.9,4.3,4.3,0,0,0-7.17,2.11l-3.59,15.76-1.39-4.71a4.49,4.49,0,0,0-8.66.23l-.05.23a4.35,4.35,0,0,0,0,1.74l2,11.51a25.54,25.54,0,0,0,.76,3.13l.14.47a23.54,23.54,0,0,1,.47,12.17l-1.86,8.16a2.15,2.15,0,0,0-2.58,1.6l-.95,4.16a2.15,2.15,0,0,0,1.63,2.56l23.16,5.28a2.15,2.15,0,0,0,2.58-1.6l.95-4.16a2.15,2.15,0,0,0-1.63-2.56l2.15-9.45A23.34,23.34,0,0,1,412.68,137ZM405,161.58l-23.16-5.28.95-4.16,23.16,5.28Zm1.47-16.17-2.15,9.45-19-4.32,1.86-8.16a25.65,25.65,0,0,0-.51-13.26l-.14-.47a23.86,23.86,0,0,1-.7-2.87l-2-11.51a2.26,2.26,0,0,1,0-.9l.05-.23a2.32,2.32,0,0,1,4.48-.12l2.49,8.4-.14.6L389,124.76l1.85,1.11,1.86-3,4.78-21a2.16,2.16,0,0,1,4.21,1l-4.5,19.78,2.11.48,5.22-22.9a2.16,2.16,0,0,1,4.21,1L403.53,124l2.11.48,4.5-19.78a2.16,2.16,0,0,1,4.21,1l-4.5,19.78,2.11.48,3.2-14.05a1.62,1.62,0,0,1,3.16.72l-3.22,14.13a23.33,23.33,0,0,1-4.15,8.93A25.44,25.44,0,0,0,406.42,145.41Z"/><path d="M407.42,133.19l1.79,1.2a22.14,22.14,0,0,0,1.26-1.87l-1.85-1.1A21.07,21.07,0,0,1,407.42,133.19Z"/><path d="M402.21,144.45l-1.2,5.28,2.11.48,1.2-5.28a27.53,27.53,0,0,1,3.56-8.6L406,135.19A29.64,29.64,0,0,0,402.21,144.45Z"/><path class="cls-2" d="M393.5,160.5c0,29.12-24.38,52.68-54.5,52.68"/><path class="cls-2" d="M118,269.18c0-29.12,24.39-52.68,54.51-52.67"/><path class="cls-1" d="M103.35,298.09a27.5,27.5,0,0,0-1.7,11.36l.94,15.49a4,4,0,0,0,4.23,3.75,4,4,0,0,0,1.69-.5l.16,2.68a4.54,4.54,0,0,0,7.13,3.49,4.55,4.55,0,0,0,9-.55,4.54,4.54,0,0,0,6.66-4.32l-1-17.27,2.82,4.42A4.74,4.74,0,0,0,142,313.8l0-.25a4.7,4.7,0,0,0-.47-1.8L136,300.53a27.47,27.47,0,0,0-1.7-3l-.29-.44a25.43,25.43,0,0,1-4.1-12.37l-.54-8.94a2.29,2.29,0,0,0,2.14-2.42l-.28-4.56a2.29,2.29,0,0,0-2.42-2.14l-25.1,1.52a2.29,2.29,0,0,0-2.14,2.42l.28,4.56a2.29,2.29,0,0,0,2.42,2.14l.63,10.35A25.23,25.23,0,0,1,103.35,298.09Zm.52-27.62L129,269l.28,4.56L104.15,275Zm3.32,17.06-.63-10.35,20.54-1.24.54,8.94a27.71,27.71,0,0,0,4.47,13.48l.29.44a25.66,25.66,0,0,1,1.56,2.74l5.49,11.22a2.45,2.45,0,0,1,.25.93l0,.25a2.45,2.45,0,0,1-4.52,1.47l-5-7.89,0-.66.89-3.31-2.21-.59-1,3.67,1.39,23a2.29,2.29,0,1,1-4.56.28l-1.31-21.68-2.28.14,1.52,25.1a2.29,2.29,0,0,1-4.56.28l-1.52-25.1-2.28.14,1.31,21.68a2.29,2.29,0,1,1-4.56.28L109.64,309l-2.28.14.93,15.4a1.71,1.71,0,1,1-3.42.21l-.94-15.49a25.22,25.22,0,0,1,1.56-10.42A27.5,27.5,0,0,0,107.2,287.53Z"/><path d="M109.81,299.67l-2.18-.7a23.86,23.86,0,0,0-.73,2.3l2.21.58A22.71,22.71,0,0,1,109.81,299.67Z"/><path d="M111.76,287.25l-.35-5.79-2.28.14.35,5.79a29.77,29.77,0,0,1-1.06,9.91l2.2.62A32.06,32.06,0,0,0,111.76,287.25Z"/></g><g id="head"><path class="cls-3" d="M333.86,187.64h-.62c9-11.57.71-28.55-14.26-28.55h-1c-.42,0,7.49-4.44,7.35-14.62a17.88,17.88,0,0,0-18-17.43h-1.1l-2.79-4.68c9-11.75.24-28.41-14.38-28.41H278.27l0,0c8.2-28.23-17.91-42.35-30.73-47.46A3.32,3.32,0,0,0,243,50.16c1,5.46-3.7,14.17-13.53,24a12.6,12.6,0,0,0-2,15.25l2.61,4.53h-9.21c-14.62,0-23.37,16.66-14.38,28.41L203.72,127h-1.1a17.88,17.88,0,0,0-18,17.43,17.65,17.65,0,0,0,7.35,14.6c.08.06-.22,0-1,0-15,0-23.31,17-14.26,28.55h-.62A20.19,20.19,0,0,0,156,207.77h0a20.19,20.19,0,0,0,20.14,20.14H333.86A20.19,20.19,0,0,0,354,207.77h0A20.2,20.2,0,0,0,333.86,187.64Z"/><path class="cls-4" d="M263.39,55a74.4,74.4,0,0,0-15.87-8.58A3.32,3.32,0,0,0,243,50.16c1,5.46-3.7,14.17-13.53,24a12.6,12.6,0,0,0-2,15.25l2.61,4.53h-9.21c-14.62,0-23.37,16.66-14.38,28.41L203.72,127h-1.1a17.88,17.88,0,0,0-18,17.43,17.65,17.65,0,0,0,7.35,14.6c.08.06-.22,0-1,0-15,0-23.31,17-14.26,28.55h-.62A20.19,20.19,0,0,0,156,207.77h0a20.19,20.19,0,0,0,20.14,20.14h20.73a20.19,20.19,0,0,1-20.14-20.14h0a20.21,20.21,0,0,1,15.64-19.62,3.92,3.92,0,0,0,2.64-2.09h0a3.06,3.06,0,0,0,.05-2.54,17.79,17.79,0,0,1,11.66-23.75,3.29,3.29,0,0,0,2.09-1.7l0-.07a3,3,0,0,0-.25-3.1,17.58,17.58,0,0,1-3.24-10.15,18,18,0,0,1,18-17.72h1.1l2.79-4.68c-9-11.74-.24-28.41,14.38-28.41h5.25a2.29,2.29,0,0,0,2-3.44l-.63-1.1a12.6,12.6,0,0,1,2-15.25C257.52,66.88,262,60.23,263.39,55Z"/><circle class="cls-5" cx="223.6" cy="135.69" r="21.69"/><path class="cls-6" d="M213.48,141.54a21.69,21.69,0,0,1,3.9-26.62,21.69,21.69,0,1,0,21.1,36.55A21.69,21.69,0,0,1,213.48,141.54Z"/><path class="cls-5" d="M211.62,177.57c18,34.54,67,35.45,86.45,2.32a5.84,5.84,0,0,0-5-8.8H215.56A4.44,4.44,0,0,0,211.62,177.57Z"/><path class="cls-6" d="M231.46,177.57c-1.19-3,.47-6.48,3-6.48H215.56a4.44,4.44,0,0,0-3.94,6.48c10.17,19.58,30.33,28.35,49.44,26.24C249.15,202.11,237.8,193.36,231.46,177.57Z"/><circle class="cls-5" cx="286.4" cy="135.69" r="21.69"/><path class="cls-6" d="M276.27,141.54a21.69,21.69,0,0,1,3.9-26.62,21.69,21.69,0,1,0,21.1,36.55A21.69,21.69,0,0,1,276.27,141.54Z"/><circle class="cls-7" cx="280.41" cy="135.69" r="4.68"/><circle class="cls-7" cx="229.59" cy="135.69" r="4.68"/></g><g id="diaper"><path class="cls-8" d="M270.09,318.29H236.91a3.5,3.5,0,0,1-3.5-3.5,36,36,0,0,0-35.91-35.91,3.5,3.5,0,0,1-3.5-3.5V231.94a3.5,3.5,0,0,1,3.5-3.5h112a3.5,3.5,0,0,1,3.5,3.5v43.44a3.5,3.5,0,0,1-3.5,3.5,36,36,0,0,0-35.91,35.91A3.5,3.5,0,0,1,270.09,318.29Z"/><path class="cls-9" d="M309.5,228.44h-56v89.85h16.59a3.5,3.5,0,0,0,3.5-3.5,36,36,0,0,1,35.91-35.91,3.5,3.5,0,0,0,3.5-3.5V231.94A3.5,3.5,0,0,0,309.5,228.44Z"/><path class="cls-9" d="M220.08,250.08H209.61a3.5,3.5,0,0,1,0-7h10.47a3.5,3.5,0,0,1,0,7Z"/><path class="cls-9" d="M245.85,250.08H235.38a3.5,3.5,0,1,1,0-7h10.47a3.5,3.5,0,1,1,0,7Z"/><path class="cls-10" d="M271.62,255.08H261.15a3.5,3.5,0,0,1,0-7h10.47a3.5,3.5,0,0,1,0,7Z"/><path class="cls-10" d="M297.39,255.08H286.92a3.5,3.5,0,0,1,0-7h10.47a3.5,3.5,0,0,1,0,7Z"/><path class="cls-9" d="M236.91,314.29A43,43,0,0,1,194,271.38a3.5,3.5,0,0,1,3.5-3.5,43,43,0,0,1,42.91,42.91A3.5,3.5,0,0,1,236.91,314.29Z"/><path class="cls-10" d="M270.09,314.29a3.5,3.5,0,0,1-3.5-3.5,43,43,0,0,1,42.91-42.91,3.5,3.5,0,0,1,3.5,3.5A43,43,0,0,1,270.09,314.29Z"/></g><g id="legs"><path class="cls-11" d="M222,403c0-55.27,7.6-100,17-100"/><path class="cls-11" d="M281.25,403.27c1.93-55.24-4.11-100.2-13.5-100.53"/></g><g id="shoe"><path class="cls-12" d="M265.27,425.08l2.74-27c0-.2-.05-1.47-1.27-1.52a.92.92,0,0,1,.1-1.83,3,3,0,0,1,2.84,2.23l20.21-6a.9.9,0,0,1,1.07.51c.1.25,6.25,25,29,25,4,0,7.52,3.76,8,7.06v.15a7.27,7.27,0,0,1-1.17,4.62c-22.5-.1-43.72.3-61.8.15Z"/><path class="cls-13" d="M327.22,427.52a6.81,6.81,0,0,0,.66-2H265.22l-.15,2Z"/><path class="cls-14" d="M280.25,400.1a7.11,7.11,0,1,0,7.11,7.11A7.13,7.13,0,0,0,280.25,400.1Z"/><path class="cls-15" d="M276.24,406.19a.62.62,0,0,1,.46-.41l2.13-.3.91-2a.61.61,0,0,1,.51-.36.55.55,0,0,1,.51.36l.91,2,2.13.3a.62.62,0,0,1,.46.41.67.67,0,0,1-.15.61l-1.52,1.57.36,2.23a.51.51,0,0,1-.25.56.37.37,0,0,1-.3.1.64.64,0,0,1-.3-.05l-1.83-1-1.83,1a.64.64,0,0,1-.3.05.94.94,0,0,1-.36-.1.65.65,0,0,1-.25-.56l.36-2.23-1.52-1.57A.54.54,0,0,1,276.24,406.19Z"/><path class="cls-14" d="M295.18,405.33l1.42-1.42.1-.1c-.46-.71-.91-1.37-1.32-2.08a1.28,1.28,0,0,0-.61.36l-1.42,1.42a1.29,1.29,0,1,0,1.83,1.83Zm2.64.25L296.4,407a1.35,1.35,0,0,0,0,1.88,1.29,1.29,0,0,0,1.83,0l1.42-1.42q-.91-1-1.68-2C297.92,405.48,297.87,405.53,297.82,405.58Zm4,6.35,1.27-1.27c-.71-.56-1.32-1.12-2-1.73L300,410a1.35,1.35,0,0,0,0,1.88A1.29,1.29,0,0,0,301.78,411.93Z"/><path class="cls-16" d="M311.63,428.33a19.12,19.12,0,0,1-.41-3.86,16.35,16.35,0,0,1,2.39-8.68h.05l-1.78-.46a16.43,16.43,0,0,0-2.69,9.14,16.06,16.06,0,0,0,.46,3.86"/><path class="cls-14" d="M327.93,423.61c-.46-3.35-4-7.11-8-7.11a27.93,27.93,0,0,1-6.35-.71,16.79,16.79,0,0,0-2.34,8.68,19.12,19.12,0,0,0,.41,3.86c5,0,10-.05,15.13-.05a7,7,0,0,0,1.17-4.62Z"/><path class="cls-13" d="M267.2,428.53l3-31.69-.61.2a3,3,0,0,0-2.84-2.23.92.92,0,0,0-.1,1.83c1.17.05,1.27,1.32,1.27,1.52l-2.69,26.91-.25,3.45h2.18Z"/><path class="cls-17" d="M309.45,427.52h2c-.1-.66-.2-1.32-.25-2h-2C309.25,426.2,309.35,426.86,309.45,427.52Z"/><path class="cls-18" d="M311.48,427.52h15.74a6.81,6.81,0,0,0,.66-2H311.23C311.28,426.2,311.38,426.86,311.48,427.52Z"/><path class="cls-14" d="M327.32,426.5H265.68a1.65,1.65,0,0,0-1.68,1.62v.81a1.65,1.65,0,0,0,1.68,1.62h61.65a1.65,1.65,0,0,0,1.68-1.62v-.81A1.65,1.65,0,0,0,327.32,426.5Z"/><path class="cls-18" d="M287.87,426.5h2v4.06h-2Zm-15.23,0h2v4.06h-2Zm10.16,0h2v4.06h-2Zm-5.08,0h2v4.06h-2Zm15.23,0h2v4.06h-2Zm-25.39,0h2v4.06h-2Zm50.78,0h2v4.06h-2Zm5.08,0h2v4.06h-2Zm-10.16,0h2v4.06h-2Zm-10.16,0h2v4.06h-2Zm-5.08,0h2v4.06h-2Zm10.16,0h2v4.06h-2Z"/><path class="cls-12" d="M234.35,429.62c-18.07-.48-39.27-1.63-61.76-2.31a7.27,7.27,0,0,1-1-4.66v-.15c.62-3.28,4.26-6.91,8.26-6.77,22.74.79,29.74-23.76,29.85-24a.9.9,0,0,1,1.08-.47l20,6.69a3,3,0,0,1,2.92-2.13.92.92,0,0,1,0,1.83c-1.22,0-1.31,1.28-1.32,1.48l1.8,27Z"/><path class="cls-13" d="M234.33,428.6l-.08-2-62.63-2.19a6.81,6.81,0,0,0,.59,2.05Z"/><path class="cls-14" d="M212.76,407.53a7.11,7.11,0,1,0,7.35-6.86A7.13,7.13,0,0,0,212.76,407.53Z"/><path class="cls-15" d="M223.79,407.5,222.21,409l.28,2.25a.65.65,0,0,1-.27.55.94.94,0,0,1-.36.09.64.64,0,0,1-.3-.06l-1.79-1.08-1.86,1a.64.64,0,0,1-.31,0,.37.37,0,0,1-.3-.11.51.51,0,0,1-.23-.57l.43-2.22L216,407.23a.67.67,0,0,1-.13-.61.62.62,0,0,1,.47-.39l2.14-.23,1-1.95a.55.55,0,0,1,.52-.34.61.61,0,0,1,.5.37l.84,2,2.12.38a.62.62,0,0,1,.44.42A.54.54,0,0,1,223.79,407.5Z"/><path class="cls-14" d="M206.83,405.49a1.35,1.35,0,0,0,.07-1.88l-1.37-1.47a1.28,1.28,0,0,0-.6-.38c-.43.7-.91,1.34-1.39,2l.1.11,1.37,1.47A1.34,1.34,0,0,0,206.83,405.49Zm-4.62-.06q-.8,1-1.74,1.92l1.37,1.47a1.29,1.29,0,0,0,1.83.06,1.35,1.35,0,0,0,.07-1.88l-1.37-1.47C202.31,405.48,202.26,405.43,202.21,405.43Zm-2.2,6.38a1.35,1.35,0,0,0,.07-1.88L199,408.77c-.68.59-1.31,1.12-2,1.66l1.22,1.31A1.29,1.29,0,0,0,200,411.81Z"/><path class="cls-16" d="M189.74,427.86a16.06,16.06,0,0,0,.59-3.84,16.43,16.43,0,0,0-2.37-9.23l-1.79.39h.05a16.35,16.35,0,0,1,2.08,8.76,19.12,19.12,0,0,1-.54,3.84"/><path class="cls-14" d="M171.64,422.55a7,7,0,0,0,1,4.66c5.13.18,10.15.41,15.12.58a19.12,19.12,0,0,0,.54-3.84,16.79,16.79,0,0,0-2-8.76,27.93,27.93,0,0,1-6.37.49c-4-.14-7.69,3.49-8.27,6.82Z"/><path class="cls-13" d="M232.16,429.54l2.18.08-.13-3.46-1.75-27c0-.2.15-1.47,1.32-1.48a.92.92,0,0,0,0-1.83,3,3,0,0,0-2.92,2.13l-.6-.22,1.94,31.77Z"/><path class="cls-17" d="M190.3,425l-2-.07c-.08.71-.2,1.36-.32,2l2,.07C190.1,426.4,190.22,425.74,190.3,425Z"/><path class="cls-18" d="M188.27,425l-16.65-.58a6.81,6.81,0,0,0,.59,2.05l15.73.55C188.07,426.33,188.19,425.67,188.27,425Z"/><path class="cls-14" d="M170.41,427l0,.81a1.65,1.65,0,0,0,1.62,1.68l61.61,2.15a1.65,1.65,0,0,0,1.73-1.57l0-.81a1.65,1.65,0,0,0-1.62-1.68l-61.61-2.15A1.65,1.65,0,0,0,170.41,427Z"/><path class="cls-18" d="M211.44,430.85l-2-.07.14-4.06,2,.07Zm15.23.53-2-.07.14-4.06,2,.07ZM216.51,431l-2-.07.14-4.06,2,.07Zm5.08.18-2-.07.14-4.06,2,.07Zm-15.23-.53-2-.07.14-4.06,2,.07Zm25.38.89-2-.07.14-4.06,2,.07ZM181,429.79l-2-.07.14-4.06,2,.07Zm-5.08-.18-2-.07.14-4.06,2,.07Zm10.15.35-2-.07.14-4.06,2,.07Zm10.15.35-2-.07.14-4.06,2,.07Zm5.08.18-2-.07.14-4.06,2,.07Zm-10.15-.35-2-.07.14-4.06,2,.07Z"/></g><g id="tie"><path class="cls-19" d="M270.87,266.62l-15.08-28.88,6.46,34,8.06-3.59A1.15,1.15,0,0,0,270.87,266.62Z"/><polygon class="cls-20" points="262.24 250.09 255.79 237.75 262.25 271.79 266.04 270.11 262.24 250.09"/><path class="cls-21" d="M259,229.21l-.93-1.57A1.32,1.32,0,0,0,257,227H243.92a1.32,1.32,0,0,0-1.13.64l-.93,1.57a1.32,1.32,0,0,0-.07,1.22l3.32,7.32h10.69l3.32-7.32A1.32,1.32,0,0,0,259,229.21Z"/><path class="cls-19" d="M245.49,229.21l.93-1.57a1.32,1.32,0,0,1,1.13-.64h-3.64a1.32,1.32,0,0,0-1.13.64l-.93,1.57a1.32,1.32,0,0,0-.07,1.22l3.32,7.32h3.64l-3.32-7.32A1.32,1.32,0,0,1,245.49,229.21Z"/><path class="cls-21" d="M266,284.27l-10.22-46.53H245.1l-10.22,46.53A2.55,2.55,0,0,0,236.1,287l13.34,7.7a2,2,0,0,0,2,0l13.34-7.7A2.55,2.55,0,0,0,266,284.27Z"/><path class="cls-19" d="M253.55,292.68,240.2,285a2.55,2.55,0,0,1-1.21-2.75l9.77-44.48H245.1l-10.22,46.53A2.55,2.55,0,0,0,236.1,287l13.34,7.7a2,2,0,0,0,2,0l3.09-1.78A2,2,0,0,1,253.55,292.68Z"/><polygon class="cls-19" points="238.53 267.68 236.57 276.59 259.32 253.84 258.07 248.14 238.53 267.68"/><polygon class="cls-20" points="238.53 267.68 238.31 268.67 236.57 276.59 241.25 271.91 243.21 263 238.53 267.68"/><path class="cls-19" d="M249,227h-5.07a1.32,1.32,0,0,0-1.13.64l0,.06,10,10h3L257,235Z"/><path class="cls-20" d="M242.78,227.64l0,.06,2.65,2.65a1.32,1.32,0,0,1,.09-1.15l.93-1.57a1.32,1.32,0,0,1,1.13-.64h-3.64a1.34,1.34,0,0,0-1.13.64Z"/><path class="cls-19" d="M260.58,259.55l-25.71,25.71A2.55,2.55,0,0,0,236.1,287l2.51,1.45,23.22-23.22Z"/><path class="cls-20" d="M240.2,285a2.55,2.55,0,0,1-1.21-2.75l.31-1.39-4.43,4.43a2.56,2.56,0,0,0,.06.26v0l.07.21,0,0a2.54,2.54,0,0,0,.11.23h0l.13.21,0,0,.13.17,0,0,.17.18,0,0,.16.13.06,0,.21.14,2.51,1.45,2.8-2.8Z"/><polygon class="cls-19" points="264.33 276.66 263.08 270.96 243.02 291.02 247.43 293.57 264.33 276.66"/><polygon class="cls-20" points="245.82 288.22 243.02 291.02 247.43 293.57 250.23 290.76 245.82 288.22"/><polygon class="cls-19" points="240.49 258.76 256.82 242.43 255.79 237.75 254.55 237.75 242.44 249.85 240.49 258.76"/><polygon class="cls-20" points="242.44 249.85 241.07 256.11 240.49 258.76 245.17 254.08 247.13 245.17 242.44 249.85"/></g></svg>